<svg width="1123" height="794" xmlns="http://www.w3.org/2000/svg" xmlns:xlink="http://www.w3.org/1999/xlink" overflow="hidden"><defs><clipPath id="clip0"><path d="M0 0 1123 0 1123 794 0 794Z" fill-rule="evenodd" clip-rule="evenodd"/></clipPath><clipPath id="clip1"><path d="M106 44 1016 44 1016 197 106 197Z" fill-rule="evenodd" clip-rule="evenodd"/></clipPath><clipPath id="clip2"><path d="M106 44 1016 44 1016 197 106 197Z" fill-rule="evenodd" clip-rule="evenodd"/></clipPath><clipPath id="clip3"><path d="M106 44 1016 44 1016 197 106 197Z" fill-rule="evenodd" clip-rule="evenodd"/></clipPath></defs><g clip-path="url(#clip0)"><rect x="0" y="0" width="1122.97" height="794" fill="#FFFFFF" transform="scale(1.00003 1)"/><g clip-path="url(#clip1)"><g clip-path="url(#clip2)"><g clip-path="url(#clip3)"><path d="M196.967 104.025C193.167 104.025 189.789 103.55 186.833 102.6 183.878 101.65 181.107 100.04 178.521 97.7708 177.096 96.5042 176.383 95.1054 176.383 93.575 176.383 92.3612 176.832 91.2925 177.729 90.3687 178.626 89.445 179.708 88.9833 180.975 88.9833 181.978 88.9833 182.875 89.3 183.667 89.9333 185.778 91.675 187.836 92.9417 189.842 93.7333 191.847 94.525 194.222 94.9208 196.967 94.9208 199.922 94.9208 202.469 94.2612 204.606 92.9417 206.744 91.6221 207.812 89.9862 207.812 88.0333 207.812 85.6583 206.757 83.7979 204.646 82.4521 202.535 81.1062 199.183 80.0904 194.592 79.4042 183.033 77.7154 177.254 72.332 177.254 63.2542 177.254 59.9292 178.125 57.0396 179.867 54.5854 181.608 52.1312 183.983 50.2575 186.992 48.9646 190 47.6716 193.351 47.025 197.046 47.025 200.371 47.025 203.498 47.5263 206.427 48.5292 209.356 49.532 211.797 50.8513 213.75 52.4875 215.28 53.7013 216.046 55.1 216.046 56.6833 216.046 57.8971 215.597 58.9659 214.7 59.8896 213.803 60.8133 212.747 61.275 211.533 61.275 210.742 61.275 210.029 61.0375 209.396 60.5625 208.024 59.4542 206.11 58.4383 203.656 57.5146 201.202 56.5909 198.999 56.1292 197.046 56.1292 193.721 56.1292 191.148 56.7492 189.327 57.9896 187.506 59.23 186.596 60.8529 186.596 62.8583 186.596 65.1279 187.533 66.8429 189.406 68.0042 191.28 69.1654 194.222 70.1154 198.233 70.8542 202.772 71.6458 206.401 72.6617 209.119 73.9021 211.837 75.1425 213.882 76.8312 215.254 78.9687 216.626 81.1062 217.312 83.9429 217.312 87.4792 217.312 90.8042 216.376 93.72 214.502 96.2271 212.628 98.7341 210.135 100.66 207.021 102.006 203.907 103.352 200.555 104.025 196.967 104.025ZM260.3 47.8167C261.725 47.8167 262.886 48.2388 263.783 49.0833 264.68 49.9279 265.129 51.0362 265.129 52.4083 265.129 53.7804 264.68 54.8758 263.783 55.6937 262.886 56.5117 261.725 56.9208 260.3 56.9208L247.871 56.9208 247.871 98.4042C247.871 99.7763 247.37 100.924 246.367 101.848 245.364 102.772 244.124 103.233 242.646 103.233 241.168 103.233 239.954 102.772 239.004 101.848 238.054 100.924 237.579 99.7763 237.579 98.4042L237.579 56.9208 225.15 56.9208C223.725 56.9208 222.564 56.4987 221.667 55.6542 220.77 54.8096 220.321 53.7013 220.321 52.3292 220.321 51.0096 220.783 49.9279 221.706 49.0833 222.63 48.2388 223.778 47.8167 225.15 47.8167L260.3 47.8167ZM310.254 47.7375C311.626 47.7375 312.735 48.1862 313.579 49.0833 314.424 49.9804 314.846 51.1417 314.846 52.5667L314.846 81.225C314.846 85.6054 313.922 89.4846 312.075 92.8625 310.228 96.2404 307.642 98.8792 304.317 100.779 300.992 102.679 297.192 103.629 292.917 103.629 288.642 103.629 284.828 102.679 281.477 100.779 278.126 98.8792 275.526 96.2404 273.679 92.8625 271.832 89.4846 270.908 85.6054 270.908 81.225L270.908 52.5667C270.908 51.1945 271.383 50.0466 272.333 49.1229 273.283 48.1992 274.497 47.7375 275.975 47.7375 277.242 47.7375 278.35 48.1992 279.3 49.1229 280.25 50.0466 280.725 51.1945 280.725 52.5667L280.725 81.225C280.725 83.7583 281.279 86.0146 282.387 87.9937 283.496 89.9729 284.987 91.4904 286.86 92.5458 288.734 93.6013 290.753 94.1292 292.917 94.1292 295.186 94.1292 297.31 93.6013 299.29 92.5458 301.269 91.4904 302.852 89.9729 304.04 87.9937 305.227 86.0146 305.821 83.7583 305.821 81.225L305.821 52.5667C305.821 51.1417 306.217 49.9804 307.008 49.0833 307.8 48.1862 308.882 47.7375 310.254 47.7375ZM347.937 47.8167C352.9 47.8167 357.162 49.0437 360.721 51.4979 364.287 53.9521 367.004 57.2771 368.879 61.4729 370.75 65.6687 371.687 70.3529 371.687 75.525 371.687 80.6971 370.75 85.3812 368.879 89.5771 367.004 93.7729 364.287 97.0979 360.721 99.5521 357.162 102.006 352.9 103.233 347.937 103.233L329.017 103.233C327.645 103.233 326.496 102.772 325.571 101.848 324.65 100.924 324.187 99.7763 324.187 98.4042L324.187 52.6458C324.187 51.2737 324.65 50.1258 325.571 49.2021 326.496 48.2784 327.645 47.8167 329.017 47.8167L347.937 47.8167ZM347.146 94.1292C351.896 94.1292 355.458 92.3742 357.833 88.8646 360.208 85.355 361.396 80.9083 361.396 75.525 361.396 70.1417 360.196 65.695 357.795 62.1854 355.392 58.6758 351.842 56.9208 347.146 56.9208L334.083 56.9208 334.083 94.1292 347.146 94.1292ZM409.608 94.1292C410.979 94.1292 412.129 94.5909 413.054 95.5146 413.975 96.4383 414.437 97.507 414.437 98.7208 414.437 100.04 413.975 101.122 413.054 101.967 412.129 102.811 410.979 103.233 409.608 103.233L383.087 103.233C381.716 103.233 380.567 102.772 379.645 101.848 378.721 100.924 378.258 99.7763 378.258 98.4042L378.258 52.6458C378.258 51.2737 378.721 50.1258 379.645 49.2021 380.567 48.2784 381.716 47.8167 383.087 47.8167L409.608 47.8167C410.979 47.8167 412.129 48.2521 413.054 49.1229 413.975 49.9937 414.437 51.1154 414.437 52.4875 414.437 53.807 413.988 54.8758 413.092 55.6937 412.195 56.5117 411.033 56.9208 409.608 56.9208L388.154 56.9208 388.154 70.3792 406.046 70.3792C407.417 70.3792 408.566 70.8146 409.488 71.6854 410.413 72.5562 410.875 73.6779 410.875 75.05 410.875 76.3695 410.425 77.4383 409.529 78.2562 408.633 79.0742 407.471 79.4833 406.046 79.4833L388.154 79.4833 388.154 94.1292 409.608 94.1292ZM463.046 47.8167C464.312 47.8167 465.342 48.2388 466.133 49.0833 466.925 49.9279 467.321 50.9833 467.321 52.25L467.321 98.4042C467.321 99.7763 466.858 100.924 465.937 101.848 465.012 102.772 463.863 103.233 462.492 103.233 461.754 103.233 461.029 103.115 460.313 102.877 459.604 102.64 459.087 102.31 458.771 101.887L429.717 64.9958 429.717 98.8C429.717 100.067 429.308 101.122 428.488 101.967 427.671 102.811 426.604 103.233 425.283 103.233 424.017 103.233 422.987 102.811 422.196 101.967 421.404 101.122 421.008 100.067 421.008 98.8L421.008 52.6458C421.008 51.2737 421.471 50.1258 422.395 49.2021 423.317 48.2784 424.466 47.8167 425.837 47.8167 426.629 47.8167 427.408 47.975 428.171 48.2917 428.938 48.6083 429.504 49.0304 429.875 49.5583L458.692 86.2917 458.692 52.25C458.692 50.9833 459.1 49.9279 459.92 49.0833 460.737 48.2388 461.779 47.8167 463.046 47.8167ZM513.079 47.8167C514.504 47.8167 515.666 48.2388 516.562 49.0833 517.459 49.9279 517.908 51.0362 517.908 52.4083 517.908 53.7804 517.459 54.8758 516.562 55.6937 515.666 56.5117 514.504 56.9208 513.079 56.9208L500.65 56.9208 500.65 98.4042C500.65 99.7763 500.15 100.924 499.146 101.848 498.142 102.772 496.904 103.233 495.425 103.233 493.946 103.233 492.733 102.772 491.783 101.848 490.833 100.924 490.358 99.7763 490.358 98.4042L490.358 56.9208 477.929 56.9208C476.504 56.9208 475.342 56.4987 474.446 55.6542 473.55 54.8096 473.1 53.7013 473.1 52.3292 473.1 51.0096 473.562 49.9279 474.487 49.0833 475.408 48.2388 476.558 47.8167 477.929 47.8167L513.079 47.8167ZM586.783 95.475C587.47 95.8971 588.012 96.4513 588.405 97.1375 588.804 97.8237 589 98.5362 589 99.275 589 100.225 588.683 101.096 588.05 101.887 587.258 102.837 586.045 103.312 584.408 103.312 583.142 103.312 581.979 103.022 580.925 102.442 577.125 100.278 575.225 95.8708 575.225 89.2208 575.225 87.3208 574.604 85.8167 573.363 84.7083 572.125 83.6 570.342 83.0458 568.021 83.0458L553.217 83.0458 553.217 98.4042C553.217 99.8292 552.833 100.99 552.07 101.887 551.304 102.785 550.287 103.233 549.021 103.233 547.491 103.233 546.158 102.772 545.021 101.848 543.888 100.924 543.321 99.7763 543.321 98.4042L543.321 52.6458C543.321 51.2737 543.783 50.1258 544.705 49.2021 545.629 48.2784 546.779 47.8167 548.15 47.8167L570.95 47.8167C573.695 47.8167 576.279 48.5554 578.708 50.0333 581.137 51.5112 583.075 53.5429 584.529 56.1292 585.979 58.7154 586.704 61.6179 586.704 64.8375 586.704 67.4763 585.992 70.0492 584.567 72.5562 583.142 75.0633 581.295 77.0554 579.025 78.5333 582.35 80.8554 584.171 83.9695 584.487 87.875 584.646 88.7195 584.725 89.5375 584.725 90.3292 584.937 91.9654 585.146 93.1396 585.358 93.8521 585.57 94.5646 586.045 95.1054 586.783 95.475ZM570.554 74.8917C571.504 74.8917 572.429 74.4429 573.325 73.5458 574.221 72.6487 574.962 71.4479 575.542 69.9437 576.121 68.4396 576.412 66.8167 576.412 65.075 576.412 63.5971 576.121 62.2383 575.542 60.9979 574.962 59.7575 574.221 58.7679 573.325 58.0292 572.429 57.2904 571.504 56.9208 570.554 56.9208L553.217 56.9208 553.217 74.8917 570.554 74.8917ZM645.367 75.525C645.367 80.75 644.204 85.5396 641.883 89.8937 639.562 94.2479 636.354 97.6917 632.263 100.225 628.175 102.758 623.57 104.025 618.45 104.025 613.329 104.025 608.725 102.758 604.637 100.225 600.546 97.6917 597.354 94.2479 595.055 89.8937 592.762 85.5396 591.612 80.75 591.612 75.525 591.612 70.3 592.762 65.5104 595.055 61.1562 597.354 56.8021 600.546 53.3583 604.637 50.825 608.725 48.2917 613.329 47.025 618.45 47.025 623.57 47.025 628.175 48.2917 632.263 50.825 636.354 53.3583 639.562 56.8021 641.883 61.1562 644.204 65.5104 645.367 70.3 645.367 75.525ZM635.075 75.525C635.075 71.9888 634.362 68.7825 632.937 65.9062 631.512 63.03 629.533 60.7471 627 59.0583 624.467 57.3695 621.617 56.525 618.45 56.525 615.229 56.525 612.367 57.3562 609.862 59.0187 607.354 60.6812 605.4 62.9638 604.004 65.8667 602.604 68.7695 601.904 71.9888 601.904 75.525 601.904 79.0612 602.604 82.2804 604.004 85.1833 605.4 88.0862 607.354 90.3687 609.862 92.0312 612.367 93.6937 615.229 94.525 618.45 94.525 621.617 94.525 624.467 93.6804 627 91.9917 629.533 90.3029 631.512 88.02 632.937 85.1437 634.362 82.2675 635.075 79.0612 635.075 75.525ZM685.187 72.5167C687.984 73.625 690.267 75.3138 692.037 77.5833 693.804 79.8529 694.687 82.782 694.687 86.3708 694.687 92.6513 692.892 97.032 689.304 99.5125 685.716 101.993 681.441 103.233 676.479 103.233L656.767 103.233C655.395 103.233 654.246 102.772 653.321 101.848 652.4 100.924 651.937 99.7763 651.937 98.4042L651.937 52.6458C651.937 51.2737 652.4 50.1258 653.321 49.2021 654.246 48.2784 655.395 47.8167 656.767 47.8167L676.717 47.8167C686.745 47.8167 691.758 52.5138 691.758 61.9083 691.758 64.2833 691.191 66.3812 690.055 68.2021 688.921 70.0229 687.3 71.4612 685.187 72.5167ZM681.467 63.65C681.467 61.4862 680.925 59.8633 679.845 58.7812 678.762 57.6992 677.245 57.1583 675.292 57.1583L662.229 57.1583 662.229 69.5083 675.529 69.5083C677.112 69.5083 678.496 68.9804 679.687 67.925 680.871 66.8695 681.467 65.4445 681.467 63.65ZM676.479 94.1292C678.959 94.1292 680.9 93.4695 682.296 92.15 683.696 90.8304 684.396 88.9042 684.396 86.3708 684.396 83.257 683.579 81.225 681.942 80.275 680.304 79.325 678.3 78.85 675.925 78.85L662.229 78.85 662.229 94.1292 676.479 94.1292ZM752.242 75.525C752.242 80.75 751.079 85.5396 748.758 89.8937 746.437 94.2479 743.229 97.6917 739.138 100.225 735.05 102.758 730.445 104.025 725.325 104.025 720.204 104.025 715.6 102.758 711.512 100.225 707.421 97.6917 704.229 94.2479 701.93 89.8937 699.637 85.5396 698.487 80.75 698.487 75.525 698.487 70.3 699.637 65.5104 701.93 61.1562 704.229 56.8021 707.421 53.3583 711.512 50.825 715.6 48.2917 720.204 47.025 725.325 47.025 730.445 47.025 735.05 48.2917 739.138 50.825 743.229 53.3583 746.437 56.8021 748.758 61.1562 751.079 65.5104 752.242 70.3 752.242 75.525ZM741.95 75.525C741.95 71.9888 741.237 68.7825 739.812 65.9062 738.387 63.03 736.408 60.7471 733.875 59.0583 731.342 57.3695 728.492 56.525 725.325 56.525 722.104 56.525 719.242 57.3562 716.737 59.0187 714.229 60.6812 712.275 62.9638 710.879 65.8667 709.479 68.7695 708.779 71.9888 708.779 75.525 708.779 79.0612 709.479 82.2804 710.879 85.1833 712.275 88.0862 714.229 90.3687 716.737 92.0312 719.242 93.6937 722.104 94.525 725.325 94.525 728.492 94.525 731.342 93.6804 733.875 91.9917 736.408 90.3029 738.387 88.02 739.812 85.1437 741.237 82.2675 741.95 79.0612 741.95 75.525ZM793.646 47.8167C795.071 47.8167 796.233 48.2388 797.129 49.0833 798.025 49.9279 798.475 51.0362 798.475 52.4083 798.475 53.7804 798.025 54.8758 797.129 55.6937 796.233 56.5117 795.071 56.9208 793.646 56.9208L781.217 56.9208 781.217 98.4042C781.217 99.7763 780.716 100.924 779.712 101.848 778.709 102.772 777.47 103.233 775.992 103.233 774.513 103.233 773.3 102.772 772.35 101.848 771.4 100.924 770.925 99.7763 770.925 98.4042L770.925 56.9208 758.496 56.9208C757.071 56.9208 755.909 56.4987 755.012 55.6542 754.116 54.8096 753.667 53.7013 753.667 52.3292 753.667 51.0096 754.129 49.9279 755.054 49.0833 755.975 48.2388 757.125 47.8167 758.496 47.8167L793.646 47.8167ZM814.15 98.4042C814.15 99.7763 813.65 100.924 812.646 101.848 811.642 102.772 810.483 103.233 809.162 103.233 807.737 103.233 806.563 102.772 805.638 101.848 804.716 100.924 804.254 99.7763 804.254 98.4042L804.254 52.6458C804.254 51.2737 804.729 50.1258 805.679 49.2021 806.629 48.2784 807.842 47.8167 809.321 47.8167 810.641 47.8167 811.775 48.2784 812.725 49.2021 813.675 50.1258 814.15 51.2737 814.15 52.6458L814.15 98.4042ZM862.283 50.5083C863.92 51.3529 864.737 52.6987 864.737 54.5458 864.737 55.6542 864.342 56.7362 863.55 57.7917 862.704 58.9 861.625 59.4542 860.304 59.4542 859.408 59.4542 858.509 59.2167 857.612 58.7417 855.025 57.5279 852.229 56.9208 849.221 56.9208 845.525 56.9208 842.308 57.6992 839.562 59.2562 836.817 60.8133 834.708 63.0034 833.229 65.8271 831.75 68.6508 831.012 71.8833 831.012 75.525 831.012 81.7529 832.688 86.4763 836.038 89.6958 839.391 92.9154 843.784 94.525 849.221 94.525 852.441 94.525 855.237 93.9179 857.612 92.7042 858.562 92.282 859.408 92.0708 860.146 92.0708 861.517 92.0708 862.679 92.6513 863.629 93.8125 864.421 94.8154 864.817 95.8971 864.817 97.0583 864.817 97.9029 864.604 98.6679 864.183 99.3542 863.762 100.04 863.154 100.568 862.362 100.937 858.246 102.996 853.866 104.025 849.221 104.025 844.05 104.025 839.3 102.93 834.971 100.74 830.642 98.5492 827.187 95.3167 824.6 91.0417 822.013 86.7667 820.721 81.5945 820.721 75.525 820.721 70.1417 821.946 65.3125 824.404 61.0375 826.855 56.7625 830.246 53.4242 834.575 51.0229 838.904 48.6216 843.784 47.4208 849.221 47.4208 853.917 47.4208 858.271 48.45 862.283 50.5083ZM888.408 104.025C884.608 104.025 881.229 103.55 878.275 102.6 875.32 101.65 872.55 100.04 869.962 97.7708 868.537 96.5042 867.825 95.1054 867.825 93.575 867.825 92.3612 868.275 91.2925 869.171 90.3687 870.067 89.445 871.15 88.9833 872.417 88.9833 873.42 88.9833 874.317 89.3 875.108 89.9333 877.22 91.675 879.279 92.9417 881.283 93.7333 883.288 94.525 885.663 94.9208 888.408 94.9208 891.363 94.9208 893.912 94.2612 896.046 92.9417 898.187 91.6221 899.254 89.9862 899.254 88.0333 899.254 85.6583 898.2 83.7979 896.087 82.4521 893.975 81.1062 890.625 80.0904 886.033 79.4042 874.475 77.7154 868.696 72.332 868.696 63.2542 868.696 59.9292 869.567 57.0396 871.308 54.5854 873.05 52.1312 875.425 50.2575 878.433 48.9646 881.442 47.6716 884.792 47.025 888.487 47.025 891.812 47.025 894.938 47.5263 897.87 48.5292 900.796 49.532 903.238 50.8513 905.192 52.4875 906.721 53.7013 907.487 55.1 907.487 56.6833 907.487 57.8971 907.038 58.9659 906.142 59.8896 905.245 60.8133 904.188 61.275 902.975 61.275 902.183 61.275 901.471 61.0375 900.837 60.5625 899.466 59.4542 897.554 58.4383 895.096 57.5146 892.645 56.5909 890.441 56.1292 888.487 56.1292 885.162 56.1292 882.588 56.7492 880.77 57.9896 878.946 59.23 878.037 60.8529 878.037 62.8583 878.037 65.1279 878.975 66.8429 880.846 68.0042 882.721 69.1654 885.663 70.1154 889.675 70.8542 894.213 71.6458 897.842 72.6617 900.562 73.9021 903.279 75.1425 905.325 76.8312 906.696 78.9687 908.067 81.1062 908.754 83.9429 908.754 87.4792 908.754 90.8042 907.817 93.72 905.945 96.2271 904.071 98.7341 901.575 100.66 898.462 102.006 895.35 103.352 891.996 104.025 888.408 104.025Z" fill-rule="evenodd" transform="matrix(1.00018 0 -0 1 107 45)"/><path d="M135.385 123.429C129.557 130.728 122.348 136.999 114 141.818 90.4856 155.394 61.5144 155.394 38 141.818 29.8975 137.14 22.867 131.095 17.1318 124.07 47.5845 92.4863 72.7605 100.181 72.7605 88.9672 72.7605 77.2847 29.3237 69.5954 29.3237 61.49 29.3237 53.4201 54.8397 47.2904 76.5694 47.2372 98.299 47.2904 123.815 53.4201 123.815 61.49 123.815 69.5954 80.3782 77.2847 80.3782 88.9672 80.3782 100.104 105.212 92.5905 135.385 123.429ZM141.705 114.194C125.531 100.64 110.472 92.2307 96.5295 88.9672 103.449 83.3885 142.377 69.1967 142.377 61.5999 142.377 54.0477 108.905 35.9958 76.854 35.7833L76.854 35.7814C76.759 35.7814 76.664 35.7817 76.5694 35.7821 76.4744 35.7817 76.3794 35.7814 76.2847 35.7814L76.2847 35.7833C44.2339 35.9958 10.7613 54.0477 10.7613 61.5999 10.7613 69.1967 49.6897 83.3885 56.6092 88.9672 42.4476 92.2817 27.1352 100.905 10.6718 114.836 3.80184 103.279-2.93136e-07 89.9102 1.80004e-14 76-5.72188e-07 48.8477 14.4855 23.7582 38 10.1821 61.5144-3.39403 90.4856-3.39403 114 10.1821 137.514 23.7582 152 48.8477 152 76 152 89.6537 148.337 102.786 141.705 114.194Z" fill="#3270ED" transform="matrix(1.00018 0 -0 1 107 45)"/></g></g></g><text font-family="Oswald,Oswald_MSFontService,sans-serif" font-weight="400" font-size="139" transform="matrix(1 0 0 0.999975 308.721 683)">NO ENTRY</text><path d="M0 129C-3.2846e-14 57.7553 57.7538 0 128.997 0 200.24-3.28468e-14 257.993 57.7553 257.993 129 257.993 200.245 200.24 258 128.997 258 57.7538 258-4.9269e-14 200.245 0 129Z" stroke="#FF0000" stroke-width="32.9992" stroke-miterlimit="8" fill="none" fill-rule="evenodd" transform="matrix(1.00003 0 -0 1 415.5 235.5)"/><path d="M0 0 182.406 182.257" stroke="#FF0000" stroke-width="32.9992" stroke-miterlimit="8" fill="none" fill-rule="evenodd" transform="matrix(1.00003 0 -0 1 453.5 273.5)"/></g></svg>